/* XPM */
static char *result[] = {
/* columns rows colors chars-per-pixel */
"64 64 9 1 ",
"  c #17111A",
". c #657177",
"X c #C44D29",
"o c #CF7957",
"O c #9BADB7",
"+ c gray65",
"@ c #B2BCC2",
"# c #CBDBFC",
"$ c white",
/* pixels */
"$$$$$$$$$$$$$$$$$$$$$$$$$$$$$$$$$$$$$$$$$$$$$$$$$$$$$$$$$$$$$$$$",
"$$$$$$$$$$$$$$$$$$$$$$O$$$$$$$$$$$$$$$$$$$$$$$$$$$$$$$$O$$$$$$$$",
"$$$$$$$$$$$$$$$$$$$$$O$O$$$$$$$$$$$$$$$$$$$$$$$$$$$$$$O$O$$$$$$$",
"$$$$$$$$$$$$$$$$$$$$$$O$$$$$$$$$$$$$$$$$$$$$$$$$$$$$$$$O$$$$$$$$",
"$$$$$$$$$$$$$$$$$$$$$$$$$$$$$$$$$$$$$$$$$$$$$$$$$$$$$$$$$$$$$$$$",
"$$$$$$$$$$$$$$$$$$$$$$$$$$$$$$$$$$$$$$$$$$$$$$$$$$$$$$$$$$$$$$$$",
"$$$$$$$$$$$$$$$$$#$$$$$$$$$$$$$$$$$$$$$$$$$$$$$$$$#$$$$$$$$$$$$$",
"$$$$$$$$$$$$$$$$$##$$$$$$$$$$$$$$$$$$$$$$$$$$$$$$$##$$$$$$$$$$$$",
"$$$$$$#$$$$$$$$$$##$$#$$$$$$$$$$$$$$$$$#$$$$$$$$$$##$$#$$$$$$$$$",
"$$$$$$#$$$$$$$$$$$#O##$$$$$$$$$$$$$$$$$#$$$$$$$$$$$#O##$$$$$$$$$",
"$$$$$$#$#$$$$$$$$$O##O$$$$$$$$$$$$$$$$$#$#$$$$$$$$$O##O$$$$$$$$$",
"$$$$$$#$#$$$$$$$$$$OO$$$$$$$$$$$$$$$$$$#$#$$$$$$$$$$OO$$$$$$$$$$",
"$$$$$$$$#$$$$$$$$$$$$$$$$$$$$$$$$$$$$$$$$#$$$$$$$$$$$$$$$$$$$$$$",
"$$$$$$$$$$$$$$$$$$$$$$$$$$$$$$$$$$$$$$$$$$$$$$$$$$$$$$$$$$$$$$$$",
"$$$$$$$$$$$$$$$$$$$$$$$$$$$$$$$$$$$$$$$$$$$$$$$$$$$$$$$$$$$$$$$$",
"#$$$$$$$$$$$$$$$$$$$$$$$$$$$$$$$$#$$$$$$$$$$$$$$$$$$$$$$$$$$$$$$",
"$#$$$$$$$$$$$$$$$$$$$$$$$$$$$$$#$$#$$$$$$$$$$$$$$$$$$$$$$$$$$$$$",
"#$$$$$$$$$$$$$$$$$$$$$$$$$$$$$$$$#$$$$$$$$$$$$$$$$$$$$$$$$$$$$$$",
"$$$$$$$$$$$$$$$$$$$$$$$$$$$$$$$$$$$$$$$$$$$$$$$$$$$$$$$$$$$$$$$$",
"$$$$$$$$$$$$$$$$$$$$$$$$$$$$$$$$$$$     $$$$$$$$$$$$$$$$$$$$$$$$",
"$$$$$$$$$$$$$$$$$$$$$$$$$$$$$$$$$  ooooX $$$$$$$$$$$$$$$$$$$$$$$",
"$$$$$$$$$$O$$$$$$$$$$$$$$$$$$$$$ oooooooX $O$$$$$$$$$$$$$$$$$$$$",
"$$$$$$$$$O$O$$$$$$$$$$$$$$$$$$$$ oooooooXX $O$$$$$$$$$$$$$$$$$$$",
"$$$$$$$$$$O$$$$$$$$$$$$$$$$$$$$ oooooooooX .$$$$$$$$$$$$$$$$$$$$",
"$$$$$$$$$$$$$$$$$$$$$$$$$#$$$$$ oooooooooXX +$$$$$$$$$$$$$#$$$$$",
"$$$$$$$$$$$$$$$$$$$$$$$#$#$$$$ ooooooooooXX +$$$$$$$$$$$#$#$$$$$",
"$$$$$$$$$$$$$$$$$$$$$$$#$#$$$$ oooooooooXXX ++$$$$$$$$$$#$#$$$$$",
"$$$$$$$$$$$$$$$$$$$$$$$#$$$$$$ oooooooooXXX ++$$$$$$$$$$#$$$$$$$",
"$$$$$$$$$$$$$$$$$$$$$$$$$$$$$ oooooooooXXX +++$$$$$$$$$$$$$$$$$$",
"$$$$$$$$$$$$$#$$$$$$$$$$$$$$$ ooooooooXXXX +++#$$$$$$$$$$$$$$$$$",
"$$$$$$$$$$$$#$#$$$$$$$$$$$$$$ oooooooXXXX +++#$#$$$$$$$$$$$$$$$$",
"$$$$$$$$$$$$$#$$$$$$$$$$$$$$$ oooooXXXXX ++++$#$$$$$$$$$$$$$$$$$",
"$$$$$$$$$$$$$$$$$$$$$$$$$$$$$ ooXXXXXX  ++++$$$$$$$$$$$$$$$$$$$$",
"$$$$$$$$$$$$$$$$$$$$$$O$$$$$ $XXXXX   +++++$$$$$$$$$$$$O$$$$$$$$",
"$$$$$$$$$$$$$$$$$$$$$O$O$$$ $$@    +++++++$$$$$$$$$$$$O$O$$$$$$$",
"$$$$$$$$$$$$$$$$$$$$$$O$$$ $$@ +++++++++$$$$$$$$$$$$$$$O$$$$$$$$",
"$$$$$$$$$$$$$$$$$$$$$$$$$ $$@ +++++++$$$$$$$$$$$$$$$$$$$$$$$$$$$",
"$$$$$$$$$$$$$$$$$$$$$$$$ $$@ ++++$$$$$$$$$$$$$$$$$$$$$$$$$$$$$$$",
"$$$$$$$$$$$$$$$$$#$$    $$@ ++++$$$$$$$$$$$$$$$$$$#$$$$$$$$$$$$$",
"$$$$$$$$$$$$$$$$$## $$$$$@ ++++$$$$$$$$$$$$$$$$$$$##$$$$$$$$$$$$",
"$$$$$$#$$$$$$$$$$## $$$$@ ++++$$$$$$$$$#$$$$$$$$$$##$$#$$$$$$$$$",
"$$$$$$#$$$$$$$$$$$# $$$$ ++++$$$$$$$$$$#$$$$$$$$$$$#O##$$$$$$$$$",
"$$$$$$#$#$$$$$$$$$O#  $@ +++$$$$$$$$$$$#$#$$$$$$$$$O##O$$$$$$$$$",
"$$$$$$#$#$$$$$$$$$$OO @@ ++$$$$$$$$$$$$#$#$$$$$$$$$$OO$$$$$$$$$$",
"$$$$$$$$#$$$$$$$$$$$$$  +++$$$$$$$$$$$$$$#$$$$$$$$$$$$$$$$$$$$$$",
"$$$$$$$$$$$$$$$$$$$$$$$++++$$$$$$$$$$$$$$$$$$$$$$$$$$$$$$$$$$$$$",
"$$$$$$$$$$$$$$$$$$$$$$$$++$$$$$$$$$$$$$$$$$$$$$$$$$$$$$$$$$$$$$$",
"#$$$$$$$$$$$$$$$$$$$$$$$$$$$$$$$$#$$$$$$$$$$$$$$$$$$$$$$$$$$$$$$",
"$#$$$$$$$$$$$$$$$$$$$$$$$$$$$$$#$$#$$$$$$$$$$$$$$$$$$$$$$$$$$$$$",
"#$$$$$$$$$$$$$$$$$$$$$$$$$$$$$$$$#$$$$$$$$$$$$$$$$$$$$$$$$$$$$$$",
"$$$$$$$$$$$$$$$$$$$$$$$$$$$$$$$$$$$$$$$$$$$$$$$$$$$$$$$$$$$$$$$$",
"$$$$$$$$$$$$$$$$$$$$$$$$$$$$$$$$$$$$$$$$$$$$$$$$$$$$$$$$$$$$$$$$",
"$$$$$$$$$$$$$$$$$$$$$$$$$$$$$$$$$$$$$$$$$$$$$$$$$$$$$$$$$$$$$$$$",
"$$$$$$$$$$O$$$$$$$$$$$$$$$$$$$$$$$$$$$$$$$$O$$$$$$$$$$$$$$$$$$$$",
"$$$$$$$$$O$O$$$$$$$$$$$$$$$$$$$$$$$$$$$$$$O$O$$$$$$$$$$$$$$$$$$$",
"$$$$$$$$$$O$$$$$$$$$$$$$$$$$$$$$$$$$$$$$$$$O$$$$$$$$$$$$$$$$$$$$",
"$$$$$$$$$$$$$$$$$$$$$$$$$#$$$$$$$$$$$$$$$$$$$$$$$$$$$$$$$$#$$$$$",
"$$$$$$$$$$$$$$$$$$$$$$$#$#$$$$$$$$$$$$$$$$$$$$$$$$$$$$$$#$#$$$$$",
"$$$$$$$$$$$$$$$$$$$$$$$#$#$$$$$$$$$$$$$$$$$$$$$$$$$$$$$$#$#$$$$$",
"$$$$$$$$$$$$$$$$$$$$$$$#$$$$$$$$$$$$$$$$$$$$$$$$$$$$$$$$#$$$$$$$",
"$$$$$$$$$$$$$$$$$$$$$$$$$$$$$$$$$$$$$$$$$$$$$$$$$$$$$$$$$$$$$$$$",
"$$$$$$$$$$$$$#$$$$$$$$$$$$$$$$$$$$$$$$$$$$$$$$#$$$$$$$$$$$$$$$$$",
"$$$$$$$$$$$$#$#$$$$$$$$$$$$$$$$$$$$$$$$$$$$$$#$#$$$$$$$$$$$$$$$$",
"$$$$$$$$$$$$$#$$$$$$$$$$$$$$$$$$$$$$$$$$$$$$$$#$$$$$$$$$$$$$$$$$"
};
