/* XPM */
static char *result[] = {
/* columns rows colors chars-per-pixel */
"64 64 12 1 ",
"  c #45283C",
". c #663931",
"X c #3E734E",
"o c #7AB055",
"O c #4D9262",
"+ c #6C7980",
"@ c #8E99B0",
"# c #9BADB7",
"$ c #B2B2B2",
"% c #CBDBFC",
"& c #F5F9F2",
"* c white",
/* pixels */
"****************************************************************",
"**********************#********************************#********",
"*********************#*#********o*********************#*#*******",
"**********************#*********o**********************#********",
"*******************************%O%******************************",
"*****************************%%*O%%*****************************",
"*****************%**************o*%O**************%*************",
"*****************%%***********oOo%%***************%%************",
"******%**********%%**%******O*o%%%oO%&*%**********%%**%*********",
"******%***********%#%%*****O%o****o*O*O%***********%#%%*********",
"******%*%*********#%%#*****o%o*OO**OOO*%*%*********#%%#*********",
"******%*%**********##*****O**%oO**%***%X*%**********##**********",
"********%******************%%oOo*%*O*O*%o%**********************",
"*************************O%Ooo*%%O%****%X***********************",
"*************************OOoOoOoOOO**%%XXO**********************",
"%************************oO****OO***%XXXXOX*********************",
"*%**********************%%oX%%%**%%%XXXXXXX*********************",
"%*********************%%%oooXXXXXXXOOOXXXXX*********************",
"**********************XOoooOOOOOOOOOOOOX*XXX********************",
"*********************XO**OoOoOO*********%XX*********************",
"********************XO*****OO*******%X%%OXXX********************",
"**********#*********XO%%%**%*OOO%**%XOXOXXX#********************",
"*********#*#********XOOOO%%OOOOOO%%XOXOXOXX*#*******************",
"**********#***********OOXOXOOOOOOOOOOOOOXXX#********************",
"**********************OOOXOXOXOOOOOOOOOXOXXX**************%*****",
"**********************oOOOXOXOXOXOOOOOOOXX*XX***********%*%*****",
"*******************%**OoOOOXXXXXOXOOO**O****X$**********%*%*****",
"*******************%***OoOOOXXXXXOOO*****%%%X$**********%*******",
"*******************X%***OoOOO*****OO****%OOXXX******************",
"*************%*****XX****Oo**%%%%*****%%XOXXXX%*****************",
"************%*%***XX%%%*****OOXXX%%%%%XXOXOXXXX%****************",
"*************%***X**%XX%%%%%OOOOXXXXXXXOXOXOXXX*****************",
"*****************X***XXXXXXOOOOOOOXXXOOXOX*XXXX*****************",
"*****************X%***oOOOOOOOOOOOOOOOOO***%XXX********#********",
"*****************XX%***oOOOOOOOOOOOOOO****%XXXX*******#*#*******",
"*****************XXXOO%%OO%****%OOOOOOOXOXXXX*%********#********",
"****************XXXXXOOOOOO%%%%OOOOOOXXXXXXX*%X*****************",
"****************XXXXXXXXXOOOOOOOOOOOOOOOO***%XXX****************",
"****************X*XOOOOOO**OOOOOOOOOOOOO**OOOXXX**%*************",
"****************X***OX*%%******XXXXOoo***%OXXXXX**%%************",
"******%*********X****OXXX%%%*XXXXXO***%%OXXXXXXX**%%**%*********",
"******%*********X%***OXXXXXXXXO%%%%%%%%%%XXOOXXX***%#%%*********",
"******%*%*******X%**%%OXXXXXXXXXXXXXXXXXXOOOOOXX***#%%#*********",
"******%*%*******XO%****OXXXXXXXXXXOOOO*****%OOXX****##**********",
"********%*******XOO%%****OOOO**OOOOO****%%oOOOXX****************",
"*****************XOOo%%OOOO*%%%**O*%%%%%OOOOXXXX****************",
"******************XXXOO%%OOOOOOOOOOOOOOOOOXXXXX*****************",
"%******************XXXXOOOOOOOXXOOOOOOOOXXXXXX******************",
"*%******************XXXXXOOOOXXXXXXXXXXXXXXXX*******************",
"%*********************XXXXXXXXXXXXXXXXXXXXXX********************",
"************************XXXXXX      XX**************************",
"*************************XXX        ****************************",
"***************************.... . . ****************************",
"**********#****************.... . . $$*****#********************",
"*********#*#***********$$$$...... .  $$$$$#*#*******************",
"**********#**********$$$$$. ..... .  $$$$$$+********************",
"********************$$$$$.  ..... .  .$$$$$$$*************%*****",
"*******************$$$$@$@$$.. ..     .$$$$$$$**********%*%*****",
"*******************$$$$@$@$... .    .$$$$$$$$$**********%*%*****",
"********************$$$@$$$.         .$$$$$$$***********%*******",
"*********************$$$$$$.$$$$$$$$  $$$$$$********************",
"*************%*********$$$$$$$$$$$$$$$$$$$****%*****************",
"************%*%************$$$$$$$$$$$*******%*%****************",
"*************%********************************%*****************"
};
