/* XPM */
static char *_470136877b4420cd035b98d7b70fccchfF0HKr0HmQ5XR2b[] = {
/* columns rows colors chars-per-pixel */
"64 64 256 2 ",
"   c None",
".  c black",
"X  c #010101",
"o  c #020202",
"O  c gray1",
"+  c #040404",
"@  c gray2",
"#  c #060606",
"$  c #070707",
"%  c gray3",
"&  c #090909",
"*  c gray4",
"=  c #0B0B0B",
"-  c #0C0C0C",
";  c gray5",
":  c #0E0E0E",
">  c gray6",
",  c #1B0000",
"<  c #101010",
"1  c #111111",
"2  c gray7",
"3  c #131313",
"4  c gray8",
"5  c #151515",
"6  c #161616",
"7  c #161717",
"8  c gray9",
"9  c #181818",
"0  c #191919",
"q  c gray10",
"w  c #1B1B1B",
"e  c gray11",
"r  c #1D1D1D",
"t  c #1E1E1E",
"y  c gray12",
"u  c #330000",
"i  c #300303",
"p  c #350000",
"a  c #3A0000",
"s  c #0B2121",
"d  c #202020",
"f  c gray13",
"g  c #222222",
"h  c #232323",
"j  c gray14",
"k  c #252525",
"l  c gray15",
"z  c #272727",
"x  c #282828",
"c  c gray16",
"v  c #2A2A2A",
"b  c gray17",
"n  c #2C2C2C",
"m  c #2D2D2D",
"M  c gray18",
"N  c #2F2F2F",
"B  c gray19",
"V  c #323232",
"C  c gray20",
"Z  c #313434",
"A  c #343434",
"S  c #353535",
"D  c gray21",
"F  c #373737",
"G  c gray22",
"H  c #393939",
"J  c #3A3A3A",
"K  c gray23",
"L  c #3C3B3B",
"P  c #3C3C3C",
"I  c gray24",
"U  c #3E3E3E",
"Y  c #3F3F3F",
"T  c #680000",
"R  c #621111",
"E  c gray25",
"W  c #414141",
"Q  c #434343",
"!  c #404444",
"~  c #444444",
"^  c gray27",
"/  c gray28",
"(  c #484848",
")  c #494949",
"_  c gray29",
"`  c #4B4A4A",
"'  c #4B4B4B",
"]  c #4B4E4E",
"[  c gray30",
"{  c #4C4F4F",
"}  c #4E4E4E",
"|  c gray31",
" . c #505050",
".. c #515151",
"X. c gray32",
"o. c #535353",
"O. c gray33",
"+. c #555454",
"@. c #555555",
"#. c #565656",
"$. c #585858",
"%. c gray35",
"&. c #5A5A5A",
"*. c #5B5B5B",
"=. c gray36",
"-. c #5D5D5D",
";. c gray37",
":. c #5F5F5F",
">. c #5F6161",
",. c #606060",
"<. c gray38",
"1. c #616363",
"2. c #626262",
"3. c #646464",
"4. c #656565",
"5. c gray40",
"6. c #676666",
"7. c #686868",
"8. c DimGray",
"9. c #6A6A6A",
"0. c gray42",
"q. c #6C6C6C",
"w. c #6D6D6D",
"e. c gray43",
"r. c #6F6F6F",
"t. c gray44",
"y. c #717171",
"u. c #727272",
"i. c gray45",
"p. c #747474",
"a. c gray46",
"s. c #767676",
"d. c #777777",
"f. c gray47",
"g. c #797979",
"h. c gray48",
"j. c #7B7B7B",
"k. c #7C7C7C",
"l. c gray49",
"z. c #7E7E7E",
"x. c gray50",
"c. c #9B1313",
"v. c #A40404",
"b. c #A10909",
"n. c #B50606",
"m. c #B70909",
"M. c #C30000",
"N. c #C90000",
"B. c #E00000",
"V. c #0000FE",
"C. c #6662FE",
"Z. c #6F6BFE",
"A. c #6E6AFF",
"S. c #7470FE",
"D. c #808080",
"F. c #818181",
"G. c gray51",
"H. c #838383",
"J. c #848484",
"K. c gray52",
"L. c gray53",
"P. c #888888",
"I. c #898989",
"U. c gray54",
"Y. c gray55",
"T. c #8D8D8D",
"R. c #8E8E8E",
"E. c gray56",
"W. c #909090",
"Q. c gray57",
"!. c #929292",
"~. c gray58",
"^. c #959595",
"/. c gray59",
"(. c gray60",
"). c #9A9A9A",
"_. c #9B9B9B",
"`. c gray61",
"'. c #9D9D9D",
"]. c gray62",
"[. c #9F9F9F",
"{. c #9FA1A1",
"}. c #A0A0A0",
"|. c #A2A2A2",
" X c gray64",
".X c #A4A3A3",
"XX c #A4A4A4",
"oX c #A5A5A5",
"OX c gray65",
"+X c #A7A7A7",
"@X c gray66",
"#X c #AAAAAA",
"$X c #ACACAC",
"%X c gray68",
"&X c #AFAFAF",
"*X c #B1B1B1",
"=X c #B2B2B2",
"-X c gray70",
";X c #B4B4B4",
":X c gray72",
">X c #B9B9B9",
",X c gray73",
"<X c gray74",
"1X c gray",
"2X c gray75",
"3X c #BFBED6",
"4X c #C0C0C0",
"5X c #C3C3C3",
"6X c gray77",
"7X c #C6C6C6",
"8X c gray78",
"9X c #C8C8C8",
"0X c gray79",
"qX c #CACACA",
"wX c #CBCBCB",
"eX c #CECECE",
"rX c gray81",
"tX c #D0D0D0",
"yX c gray82",
"uX c #D2D2D2",
"iX c #D7D7D7",
"pX c gray85",
"aX c #DADADA",
"sX c gainsboro",
"dX c #DDDDDD",
"fX c gray87",
"gX c #DFDFDF",
"hX c #D4D4FF",
"jX c gray88",
"kX c #E1E1E1",
"lX c #E2E2E2",
"zX c gray89",
"xX c #E4E4E4",
"cX c #E6E6E6",
"vX c #E7E7E7",
"bX c gray91",
"nX c gray92",
"mX c gray93",
"MX c #EFEFEF",
"NX c #F1F2E6",
"BX c #E3E3FF",
"VX c #E7E6FF",
"CX c #EFEFFF",
"ZX c #F0EFFF",
"AX c gray94",
"SX c #F4F4F4",
"DX c gray96",
"FX c #F6F6F6",
"GX c gray97",
"HX c #F8F8F8",
"JX c #F9F9F9",
"KX c gray98",
"LX c gray99",
"PX c #FDFDFD",
"IX c #FEFEFE",
"UX c white",
/* pixels */
"                                                                                                                                ",
"                                                                                                                                ",
"                                                                                                                                ",
"                                                                                                                                ",
"                                                                                                                                ",
"                                                                                                                                ",
"                                                                                                                                ",
"                                                                                                                                ",
"                                                                                                                                ",
"                                                                                                                                ",
"                                                                                                                                ",
"                                                                                                                                ",
"                                                                                                                                ",
"                                                                                        . .           . .                       ",
"                                                                                        . .           . .                       ",
"                                                                                    . . 0 y # .       . . . .                   ",
"                                                                                    . # j j . .       . . . .                   ",
"                                                                                    . . - = / ;.y . . . - #.[ = .               ",
"                                                                                    . . . . 8.|.0 . . . - *X|.. .               ",
"                                                                                    . # V V '.<Xk.;.[ N D #. .;.;.y             ",
"                                                                                    . - W.T.UXUXUXUXNXk.8.. . UXUX;.. .         ",
"                                                                                    - y G.k.nXUXVXhX3XW.G.n n rXlXE . .         ",
"                                                                          . . . . y 2.;.G.k.nXUXC.V.Z.UXUXUXUX2.[ 7 . .         ",
"                                                                          . . . . 0 ;.&.k.k.nXUXZ.V.S.UXUXUXUX4.#.0 . .         ",
"                                                                  . . . . 8 y 0 1 K L.k.x.j.nXUXCXBXZXUXxX>.4.c.m.i . .         ",
"                                                                  . . . . 0 g y 1 E (.T.G.f.HXUXUXUXUXUXjXE ' v.N.p . .         ",
"                                            . . . . . . . . . . # 0 8 8 8 0 y y 0 c K / G.k.|.OXOX(.9XUXlX] #.b.M.u . .         ",
"                                            . . . . . . . . . . # j g g g y y y g 0 # g L.L.f.f.u.&.OXUXdXZ L n.B.a . .         ",
"                                          # - 8 E K 1 - - 1 - 1 1 y y y y y y 0 y y 0 c q.q.q.8.f.u.*XUXMX{..XR T , .           ",
"                                  . . . . . 1 N W.G.g 1 y j g g g y y 1 1 = # - 1 8 0 j #.#.#.[ i.f.>XUXUXUXUXs .               ",
"                                  # # 8 j c N ' OX'.E V j 0 y y y 0 y D D [ #./ D N 8 g / ' / E 4.q.'.xXaX4X<X8 .               ",
"                . . . . . . . . . 0 1 2./.U.G.@XUXUXW.U.K = 0 0 0 8 g G.k.FXUX4Xk.;.= 8 1 8 8 - D [ &.U.&.. .                   ",
"                . . . . . . . . . g 0 4.W.G.q.W.FXFXW.T.E 0 j j j g c G.G.xXUX<XL.8.g N g j j y ' 2.q.W.8.. .                   ",
"                . . 1 g y y y 0 y q.u.uXHX/.# y U.U.AXHX|.q.k.k.k.a.L.FXHXUXUXUXHXHXAXxXk.f.k.q.9XFX9Xk.8.. .                   ",
"                . . 8 j y 8 8 = = 8.q.lXUXOX. 0 U.U.UXUX|.4.f.f.f.u.G.UXUXUXUXUXUXUXUXAXf.a.f.4.uXUXuXf.8.. .                   ",
"                    . # c u.f.rXrXlXlXu.D y     y g T./.uXlXxXlXxXlXxXUXUXUXUXUXUXUXUXUXxXxXxXlXFXUXuXf.8.. .                   ",
"                    . . D OX*XUXUXUXUX#.. .     . . 8.8.lXUXUXUXUXUXUXUXUXUXUXUXUXUXUXUXUXUXUXUXUXUXdXL.u.. .                   ",
"                        1 K E u.q.u.u.j         . . a.f.dXUXUXUXUXUXHX>X>X/.G.OX*XuXUXUXUXUXUXUXuX*XW.[ ' . .                   ",
"                          . . . . . .           . . 4.8.aXUXUXUXUXUXUXk.f.N .  .f.@XUXUXUXUXUXUX;Xu.#.0 0 . .                   ",
"                          . . . . . .           . # (.OXxXUXUXUXFXuXrXq.8.E c /  .T.UXUXUXUX6X>XL.;.;.[ E . .                   ",
"                                                . # UXUXUXUXUXUXxX8.u.c j D E - . ' UXUXUXUXE - j y  .OXa.. .                   ",
"                                                . # aXMXHXUXMXdX6Xq.u.E P V D 8 . [ MXAXUXUX .g D N [ L.2.. .                   ",
"                                                . # a.a.dXUXG.. = D K G.T.y . . . c U.T.UXUXj . g P D K c . .                   ",
"                                                . . a.a.aXUXG.. = K P k.W.0 . . . c U.W.UXUXj . g P D D N . .                   ",
"                                                . # a.a.dXUX>X8. .= - P P 4.L.N . = 8 N UXUXL.a.N = 0 D P a.q.= .               ",
"                                                . . L.L.MXUX6Xa.&.. . N N k.*XE . . . 0 UXUX'.W.V . 1 D / (.W.1 .               ",
"                                                    c c L.@X4XuX'.. # V D ' &.g . . . 8 @X$XL.T.N . 8 K K  .[ # .               ",
"                                                    . . ' q.<XUX9X. # V D N N 1 . . . - u.u.k.W.N . 8 K V N c # .               ",
"                                                    . . ;.k.<XUX<X. # V D D P 8 . . . 1 G.G.G.W.N . 8 K D D V # .               ",
"                                                                                                                                ",
"                                                                                                                                ",
"                                                                                                                                ",
"                                                                                                                                ",
"                                                                                                                                ",
"                                                                                                                                ",
"                                                                                                                                ",
"                                                                                                                                ",
"                                                                                                                                ",
"                                                                                                                                ",
"                                                                                                                                ",
"                                                                                                                                ",
"                                                                                                                                ",
"                                                                                                                                ",
"                                                                                                                                "
};
