/* XPM */
static char *_6a08d44a4f54c23d43a3c4fe4395dcetgVHeo0otj5AcFt8[] = {
/* columns rows colors chars-per-pixel */
"64 64 236 2 ",
"   c None",
".  c black",
"X  c #010101",
"o  c #020202",
"O  c gray1",
"+  c #040404",
"@  c gray2",
"#  c #060606",
"$  c #070707",
"%  c gray3",
"&  c #090909",
"*  c gray4",
"=  c #0B0B0B",
"-  c gray5",
";  c #0E0E0E",
":  c gray6",
">  c #001818",
",  c #101010",
"<  c #111111",
"1  c gray7",
"2  c #131313",
"3  c gray8",
"4  c #151515",
"5  c #161616",
"6  c gray9",
"7  c #181818",
"8  c #191919",
"9  c gray10",
"0  c #1B1B1B",
"q  c gray11",
"w  c #1D1D1D",
"e  c #1E1E1E",
"r  c gray12",
"t  c #202020",
"y  c #222222",
"u  c #232323",
"i  c gray14",
"p  c #252525",
"a  c #272727",
"s  c #282828",
"d  c gray16",
"f  c #2A2A2A",
"g  c gray17",
"h  c #2C2C2C",
"j  c #2D2D2D",
"k  c gray18",
"l  c #2F2F2F",
"z  c #2C3030",
"x  c gray19",
"c  c #313131",
"v  c #323232",
"b  c gray20",
"n  c #343434",
"m  c #353535",
"M  c gray21",
"N  c #373737",
"B  c gray22",
"V  c #393939",
"C  c #3A3A3A",
"Z  c gray23",
"A  c #3C3C3C",
"S  c gray24",
"D  c #3E3E3E",
"F  c #3F3F3F",
"G  c #580404",
"H  c gray25",
"J  c #414141",
"K  c gray26",
"L  c #434343",
"P  c #444444",
"I  c gray27",
"U  c #464646",
"Y  c #484848",
"T  c #494949",
"R  c gray29",
"E  c #4B4B4B",
"W  c #4C4C4C",
"Q  c gray30",
"!  c #4E4E4E",
"~  c gray31",
"^  c #485454",
"/  c #505050",
"(  c gray32",
")  c #535353",
"_  c gray33",
"`  c #555555",
"'  c #565656",
"]  c gray35",
"[  c #5A5A5A",
"{  c #5B5B5B",
"}  c gray36",
"|  c #5D5D5D",
" . c gray37",
".. c #5F5F5F",
"X. c #606060",
"o. c gray38",
"O. c #626262",
"+. c gray39",
"@. c #646464",
"#. c #656565",
"$. c gray40",
"%. c #676767",
"&. c #686868",
"*. c DimGray",
"=. c #6A6A6A",
"-. c gray42",
";. c #6C6C6C",
":. c #6D6D6D",
">. c gray43",
",. c #6F6F6F",
"<. c gray44",
"1. c #717171",
"2. c #727272",
"3. c gray45",
"4. c #747474",
"5. c gray46",
"6. c #767676",
"7. c #777777",
"8. c gray47",
"9. c #797979",
"0. c gray48",
"q. c #7B7B7B",
"w. c #7C7C7C",
"e. c gray49",
"r. c gray50",
"t. c #960000",
"y. c #BF0000",
"u. c #843939",
"i. c #9E3939",
"p. c #B95757",
"a. c #9F7171",
"s. c #9F7C7C",
"d. c #D14C4C",
"f. c #0000FE",
"g. c #332EFE",
"h. c #3F3AFE",
"j. c #6D8181",
"k. c #6F8080",
"l. c #7E9999",
"z. c #808080",
"x. c #818181",
"c. c gray51",
"v. c #838383",
"b. c #848484",
"n. c gray52",
"m. c #868686",
"M. c gray53",
"N. c #868C8C",
"B. c #888888",
"V. c #898989",
"C. c gray54",
"Z. c #8B8B8B",
"A. c gray55",
"S. c #8D8D8D",
"D. c gray56",
"F. c #909090",
"G. c gray57",
"H. c #929292",
"J. c #939393",
"K. c gray58",
"L. c #959595",
"P. c gray59",
"I. c #979797",
"U. c #929E9E",
"Y. c #989898",
"T. c gray60",
"R. c #9A9A9A",
"E. c #9B9B9B",
"W. c gray61",
"Q. c #9D9D9D",
"!. c gray62",
"~. c #9F9F9F",
"^. c gray63",
"/. c gray64",
"(. c #A4A4A4",
"). c #A5A5A5",
"_. c gray65",
"`. c #A7A7A7",
"'. c gray66",
"]. c #AAAAAA",
"[. c #AEAEBC",
"{. c gray69",
"}. c #B1B1B1",
"|. c #B2B2B2",
" X c gray70",
".X c #B6B6B6",
"XX c #B7B7B7",
"oX c #BCBCBC",
"OX c gray74",
"+X c #A9A7FF",
"@X c #ABA9FF",
"#X c #C0C0C0",
"$X c gray76",
"%X c #C7C7C0",
"&X c #C5C5C5",
"*X c #C6C6C6",
"=X c gray79",
"-X c gray80",
";X c #CDCDCD",
":X c gray81",
">X c gray82",
",X c #D2D2D2",
"<X c LightGray",
"1X c #D5D5D5",
"2X c #D8D8D8",
"3X c gray86",
"4X c #DDDDDD",
"5X c gray87",
"6X c #D4D4FF",
"7X c #DFDEFF",
"8X c gray88",
"9X c #E1E1E1",
"0X c #E2E2E2",
"qX c gray89",
"wX c #E4E4E4",
"eX c gray90",
"rX c #E6E6E6",
"tX c #E7E7E7",
"yX c #E0EAEA",
"uX c #E9E9E9",
"iX c gray92",
"pX c #EFEFEF",
"aX c #E3E3FF",
"sX c #EAE9FF",
"dX c gray94",
"fX c #F1F1F1",
"gX c #F3F3F3",
"hX c gray96",
"jX c #F6F6F6",
"kX c gray97",
"lX c #F6F6FF",
"zX c #F8F8F8",
"xX c gray98",
"cX c #FBFBFB",
"vX c gray99",
"bX c white",
/* pixels */
"                                                                                                                                ",
"                                                                                                                                ",
"                                                                                                                                ",
"                                                                                                                                ",
"                                                                                                                                ",
"                                                                                                                                ",
"                                                                                                                                ",
"                                                                                                                                ",
"                                                                                                                                ",
"                                                                                                                                ",
"                                                                                                                                ",
"                                                                                                                                ",
"                                                                                                                                ",
"                                                                                        . .           . .                       ",
"                                                                                        . .           . .                       ",
"                                                                                    . @ 7 7 @ . . . . . .                       ",
"                                                                                    . . , 6 . . . . . . .                       ",
"                                                                                . , V V } } , . . . r O.K . .                   ",
"                                                                              . . 6 #.} r.z.. . . . k XX8.. .                   ",
"                                                                              , u m -.3.{.{.,.} K f W P.-.. .                   ",
"                                                                          . . m O.-.z.P.bXbXbXbX%X3.b.V.-.. .                   ",
"                                                                          . . m #.-.8.G.bXbX7X6X[.b.A.b.-.@ @                   ",
"                                  . . . . . . . . . . . . . .             . . Y P.z.8.G.bXbXg.f.+XbX<X7.,.7 7 . .               ",
"                                  . . . . . . . . . . . . . .             . . Y G.z.8.G.bXbXh.f.@XbX;X8.,.7 r @ .               ",
"                          . . . . 7 , ' V.W - r 7 7 r 7 7 r - . . . . . . 6 , ' A.z.8.G.bXbXsXaXlXbXxXpXpXrXrX6 .               ",
"                          . . . . , & ' T.W @ 7 u r r u r u - . . . . . . 7 , { P.z.7.G.bXbXbXbXbXbXbXbXbXbXbXu .               ",
"        . . . . . . . . @ 6 r { { O.' {.qX_.{ ' 7 r r r r u 7 , 6 6 6 6 , r 6 K #.,.z.b._./.gXbX{.k.a.d.p.N.b., .               ",
"        . . . . . . . . @ - u z.r.T.A.bXbXrX,.#.& , , - , , 7 a u u u r u r 6 S { -.A.z.,.-.rXbX7.> G y.t.^ W & .               ",
"        . . - - - - - & u W } OXoX' S 3.b.~.XX_.I W W W W ) m 7 r r r u r r 7 k V Y 3.,.z.8.iXbX*XU.s.i.u.z k @ .               ",
"        . @ a a 7 7 , . v b.T.bXbX7 . . . O.bXbX7.z.z.z.z.G.W . - @ @ , , r u 7 - k { { b.z.kXbXbXbXyXl.j.. .                   ",
"        . . 6 7 v m Y W 3.~./.#X#X7 . . . { qX<XT.~.~.~./.'.,.u S ' ' m m u r r 7 k Y W 7.3.;X4XgXbX#X} W . .                   ",
"            . . 3.V.qXbXbXbXiX. .     . . v 8.G.bXbXbXbXbXbX*XO.'.bXbXV.V.k @ 6 7 7 , r Y Y ,.#.<XbX~.. .                       ",
"            . . } 3.OXgXpXgX;X. .     . . m b.T.bXbXgXgXxXbX*X-.'.bXkXA.A.K u a u u r k } O.8.7.*XgXG.. .                       ",
"                @ @ & & & - &         . . m b.T.bXxXW r =XbXxXkXxXbXbXxXxXkXkX{.-.r.3.V.kXkXP.b.m & @                           ",
"                . . . . . . .         . . k r.G.bXbXK & ;XbXbXbXbXbXbXbXbXbXbXXX#.8.3.V.bXbXP.V.f . .                           ",
"                                  . . r 7 8.rX1XP.T.S a z.G.;XbXbXbXbXbXbXbXbXpX4XqXqXrXbXbXG.V.v . .                           ",
"                                  . . u , P.bXbXr.z.I v ,.,.;XbXbXbXbXbXbXbXbXbXbXbXbXbXbXbX~.P.k . .                           ",
"                                  . . S O.3.V.r.m m 7 , K { O.,.,.,.,.3.,.3.,.r.b.{.bXbXbXbX3.W v u , .                         ",
"                                  . . ) /.) 6 6 . . . . 7 S . . . . . . . . . . @ ,.bXbXbXbX) r m I a . .                       ",
"                                  . . ,.oX3.r r . . - 6 f K r . . . . . . . . 6 7 } 1X2XbXbXI 7 v S r . .                       ",
"                                  . . OXbX'.. .     K K V S r . .             . . u z.V.bXbXa . u I r . .                       ",
"                                  . . G.4Xz.. .     v k k m 7 . .               . a 7.r.pXpXa . u K u & &                       ",
"                                  . . . . .         . . . . .                       . - z.b.6 . u V m S k . .                   ",
"                                  . . . . .         . . . . .                       . - z.b., . u S m V k . .                   ",
"                                                                                    . , z.b.3.8.k & 7 S m k k @ .               ",
"                                                                                    . , G.P.V.T.k . 6 I S V m @ .               ",
"                                                                                        k k 3.T.k . @ 6 7 V m & .               ",
"                                                                                        . . -.T.k . . . . V m @ .               ",
"                                                                                        . . -.~.v . . . & V m @ .               ",
"                                                                                                                                ",
"                                                                                                                                ",
"                                                                                                                                ",
"                                                                                                                                ",
"                                                                                                                                ",
"                                                                                                                                ",
"                                                                                                                                ",
"                                                                                                                                ",
"                                                                                                                                ",
"                                                                                                                                ",
"                                                                                                                                ",
"                                                                                                                                ",
"                                                                                                                                ",
"                                                                                                                                ",
"                                                                                                                                "
};
