/* XPM */
static char *_841b5e0c25841fcd45be1973cf9b64aePI97sbHLnMdQctV[] = {
/* columns rows colors chars-per-pixel */
"64 64 253 2 ",
"   c None",
".  c black",
"X  c #010101",
"o  c #020202",
"O  c gray1",
"+  c #040404",
"@  c gray2",
"#  c #060606",
"$  c #070707",
"%  c gray3",
"&  c #090909",
"*  c #0B0B0B",
"=  c #0C0C0C",
"-  c gray5",
";  c #0E0E0E",
":  c gray6",
">  c #001818",
",  c #101010",
"<  c #111111",
"1  c gray7",
"2  c #131313",
"3  c gray8",
"4  c #151515",
"5  c #161616",
"6  c gray9",
"7  c #181818",
"8  c #191919",
"9  c gray10",
"0  c #1B1B1B",
"q  c gray11",
"w  c #1D1D1D",
"e  c #1E1E1E",
"r  c gray12",
"t  c #202020",
"y  c gray13",
"u  c #222222",
"i  c #232323",
"p  c gray14",
"a  c #252525",
"s  c #272727",
"d  c #282828",
"f  c gray16",
"g  c #2A2A2A",
"h  c gray17",
"j  c #2C2C2C",
"k  c #2D2D2D",
"l  c gray18",
"z  c #2F2F2F",
"x  c #2C3030",
"c  c gray19",
"v  c #313131",
"b  c #323232",
"n  c gray20",
"m  c #343434",
"M  c #353535",
"N  c gray21",
"B  c #373737",
"V  c #393939",
"C  c #3A3A3A",
"Z  c gray23",
"A  c #3C3C3C",
"S  c gray24",
"D  c #3E3E3E",
"F  c #3F3F3F",
"G  c #580404",
"H  c gray25",
"J  c #414141",
"K  c #434343",
"L  c #444444",
"P  c gray27",
"I  c #464646",
"U  c gray28",
"Y  c #484848",
"T  c #494949",
"R  c gray29",
"E  c #4B4B4B",
"W  c #4C4C4C",
"Q  c gray30",
"!  c #4E4E4E",
"~  c gray31",
"^  c #485454",
"/  c #515151",
"(  c gray32",
")  c #535353",
"_  c gray33",
"`  c #555555",
"'  c #565656",
"]  c gray34",
"[  c #585858",
"{  c gray35",
"}  c #5A5A5A",
"|  c #5B5B5B",
" . c gray36",
".. c #5D5D5D",
"X. c gray37",
"o. c #5F5F5F",
"O. c #606060",
"+. c gray38",
"@. c #626262",
"#. c gray39",
"$. c #646464",
"%. c #656565",
"&. c gray40",
"*. c #676767",
"=. c #686868",
"-. c DimGray",
";. c #6A6A6A",
":. c gray42",
">. c #6C6C6C",
",. c #6D6D6D",
"<. c gray43",
"1. c #6F6F6F",
"2. c gray44",
"3. c #717171",
"4. c #727272",
"5. c gray45",
"6. c #747474",
"7. c gray46",
"8. c #767676",
"9. c #777777",
"0. c gray47",
"q. c #797979",
"w. c gray48",
"e. c #7B7B7B",
"r. c #7C7C7C",
"t. c gray49",
"y. c #7E7E7E",
"u. c gray50",
"i. c #960000",
"p. c #BF0000",
"a. c #843939",
"s. c #9E3939",
"d. c #B95757",
"f. c #9F7171",
"g. c #9F7C7C",
"h. c #D14C4C",
"j. c #0000FE",
"k. c #332EFE",
"l. c #3F3AFE",
"z. c #6D8181",
"x. c #6F8080",
"c. c #7E9999",
"v. c #808080",
"b. c #818181",
"n. c gray51",
"m. c #838383",
"M. c #848484",
"N. c gray52",
"B. c #868686",
"V. c gray53",
"C. c #868C8C",
"Z. c #888888",
"A. c #898989",
"S. c gray54",
"D. c #8B8B8B",
"F. c gray55",
"G. c #8D8D8D",
"H. c #8E8E8E",
"J. c gray56",
"K. c #909090",
"L. c gray57",
"P. c #929292",
"I. c #939393",
"U. c gray58",
"Y. c #959595",
"T. c gray59",
"R. c #979797",
"E. c #929E9E",
"W. c #989898",
"Q. c gray60",
"!. c #9B9B9B",
"~. c #9D9D9D",
"^. c gray62",
"/. c #A0A0A0",
"(. c #A2A2A2",
"). c gray64",
"_. c #A5A5A5",
"`. c gray65",
"'. c #A7A7A7",
"]. c #AAAAAA",
"[. c #ACACAC",
"{. c gray68",
"}. c #AEAEAE",
"|. c #AFAFAF",
" X c #AEAEBC",
".X c gray69",
"XX c #B1B1B1",
"oX c #B2B2B2",
"OX c gray70",
"+X c #B4B4B4",
"@X c gray71",
"#X c #B6B6B6",
"$X c #B7B7B7",
"%X c gray72",
"&X c #B9B9B9",
"*X c gray73",
"=X c #BBBBBB",
"-X c #BCBCBC",
";X c gray75",
":X c #A9A7FF",
">X c #ABA9FF",
",X c gray76",
"<X c #C7C7C0",
"1X c #C5C5C5",
"2X c #C6C6C6",
"3X c gray78",
"4X c #C8C8C8",
"5X c gray79",
"6X c #CBCBCB",
"7X c gray80",
"8X c gray81",
"9X c #D0D0D0",
"0X c gray82",
"qX c #D2D2D2",
"wX c gray83",
"eX c gray84",
"rX c gray86",
"tX c gainsboro",
"yX c #DDDDDD",
"uX c gray87",
"iX c #D4D4FF",
"pX c #DFDEFF",
"aX c gray88",
"sX c #E1E1E1",
"dX c #E2E2E2",
"fX c #E4E4E4",
"gX c gray90",
"hX c #E6E6E6",
"jX c #E7E7E7",
"kX c #E0EAEA",
"lX c #E9E9E9",
"zX c #EAEAEA",
"xX c gray92",
"cX c #EEEEEE",
"vX c #EFEFEF",
"bX c #E3E3FF",
"nX c #EAE9FF",
"mX c gray94",
"MX c #F1F1F1",
"NX c gray95",
"BX c #F3F3F3",
"VX c #F4F4F4",
"CX c gray96",
"ZX c #F6F6F6",
"AX c gray97",
"SX c #F6F6FF",
"DX c #F8F8F8",
"FX c #F9F9F9",
"GX c gray98",
"HX c #FBFBFB",
"JX c gray99",
"KX c #FEFEFE",
"LX c white",
/* pixels */
"                                                                                                                                ",
"                                                                                                                                ",
"                                                                                                                                ",
"                                                                                                                                ",
"                                                                                                                                ",
"                                                                                                                                ",
"                                                                                                                                ",
"                                                                                                                                ",
"                                                                                                                                ",
"                                                                                                                                ",
"                                                                                                                                ",
"                                                                                                                                ",
"                                                                                                                                ",
"                                                                                        . .           . .                       ",
"                                                                                        . .           . .                       ",
"                                                                                    . $ 8 8 $ . . . . . .                       ",
"                                                                                    . . 2 3 . . . . . . .                       ",
"                                                                                . = C C { o.2 . . . w O.J . .                   ",
"                                                                              . . 6 %.o.y.v.. . . . j %X9.. .                   ",
"                                                                              2 t N ;.1..XOX;.o.J h / R.;.. .                   ",
"                                                                          . . b %.;.v.W.LXLXLXLX<X5.M.S.;.. .                   ",
"                                                                          . . N %.;.y.K.LXLXpXiX XM.G.M.;.$ $                   ",
"                                                                          . . T R.v.9.K.LXLXk.j.:XLX0X5.1.6 8 $ .               ",
"                                                                          . . T K.y.e.K.LXLXl.j.>XLX8Xe.1.8 w . .               ",
"                                                              . . . . . . 6 2 / G.v.e.G.LXLXnXbXSXLXGXmXmXfXfX8 .               ",
"                                                              . . . . . . 8 2 { R.v.9.K.LXLXLXLXLXLXLXLXLXLXLXw .               ",
"                                  . . . . . . . . . . . . . * 6 6 6 6 6 6 8 6 J *.1.v.M._.).mXLXOXz.f.h.d.C.M.2 .               ",
"                                  . . . . . . . . . . . . . = h t t t t t w 6 J { ;.J.v.1.;.xXLX9.> G p.i.^ T * .               ",
"                                  = * h T h $ = = 2 = 2 = = 6 t w w w w w w w j C E 5.1.y.e.xXLX1XE.g.s.a.x j $ .               ",
"                          . . . . 2 = o._.' $ 8 p t p t p p 8 2 = $ * 2 6 8 t 8 = j { { M.v.AXLXLXLXkXc.z.. .                   ",
"                        . $ * t t b h e.+X5.h b w w w w w w h N F ' / C N p w w 8 j T Q 9.5.8XtXmXLX,X .Q . .                   ",
"        . . . . . . . . * 8 j S.S.G.y.fXLXeXy.1.2 8 w 8 8 = Q M.].LXLXS.S.j * 8 8 6 2 8 T T 1.%.wXLX^.. .                       ",
"        . . $ . . . $ . = t b S.S.e.;.8XGX5Xy.9.w t p t p 6 ' M._.LXAXG.G.F t h t p t h o.o.y.5.1XcXK.. .                       ",
"        . $ 8 w w w w = J y.G.GXAXh . { M.+XGXdX9.y.y.e.y.;.%XGXGXLXLXGXGXAXmXOX;.y.9.S.AXAXK.S.N = *                           ",
"        . . w p 8 8 2 . b y.K.LXLXt . ' M.-XLXcX5.9.e.e.e.O.-XLXLXLXLXLXLXLXLX+XO.e.5.S.LXLXR.M.h . .                           ",
"            $ $ { %._.8XeXdX5XN C     2 w / ).].dXdXfXfXdXdXmXLXLXLXLXLXLXLXLXmXdXdXdXfXLXLXK.S.j . .                           ",
"            . . y.K.GXLXLXLXLX. .     . . h e.K.LXLXLXLXLXLXLXLXLXLXLXLXLXLXLXLXLXLXLXLXLXLX^.R.N . .                           ",
"                j N ' 5.1.5.o.        . . N M.W.LXLXLXLXLXLXrXOX{.M.K.+XOXmXLXLXLXLXLXAX%X%X%.{ w . .                           ",
"                . . . . . . .         . . j 9.G.LXLXLXLXLXLX,X1.o.* t e.9.fXLXLXLXLXLXLX9.e.j w = . .                           ",
"                . . . . . . .         . . U {.%XLXLXLXLXdX0X).o.{ j N ' Q rXLXLXLXxX+XOX%.%./ ' w . .                           ",
"                                      . . 9.LXLXLXLXLXLX).5.Q 8 j F b . . 8XLXLXLX+X. t h h y.].N . .                           ",
"                                      . . O.cXmXLXLXtXtXK.5.{ C C b h . . %XcXAXLX-X8 b N b ;.S.h . .                           ",
"                                      . . N M.W.LXGX2 . t b { W.O.. . . . %.e.1XLX{.. $ N N N C 2 . .                           ",
"                                      . . N M.W.LXGX2 . p b o.^.O.. . . . %.y.1XLX{.. . N N b C 2 . .                           ",
"                                      . . b M.W.LXLXe.9.p $ p J T e.%.$ . = 2 R.LX0X;.O.$ * b b { M.J . .                       ",
"                                      . . F R.{.LXLXM.v.w . 6 j T ).S.$ . . . R.LXdXy.9.. . j j 5.OX{ . .                       ",
"                                          2 j U {.{.8XeXF . 8 C F ' U . . . . O.%X^.v.5.. . j N U o.b . .                       ",
"                                            . * 9.5.LXLXQ . 8 F b h p $ . . . F M.9.S.5.. . j C j b 8 . .                       ",
"                                            . 8 M.M.AXLXU . 8 F N C b . . . . T R.v.M.5.. . j C N F w . .                       ",
"                                                                                                                                ",
"                                                                                                                                ",
"                                                                                                                                ",
"                                                                                                                                ",
"                                                                                                                                ",
"                                                                                                                                ",
"                                                                                                                                ",
"                                                                                                                                ",
"                                                                                                                                ",
"                                                                                                                                ",
"                                                                                                                                ",
"                                                                                                                                ",
"                                                                                                                                ",
"                                                                                                                                ",
"                                                                                                                                "
};
